HIERARCHY
ROOT Hip
{
	OFFSET 0.000000 0.000000 0.250954
	CHANNELS 6 Xposition Yposition Zposition Xrotation Yrotation Zrotation
	JOINT LowerSpine
	{
		OFFSET -0.034798 0.150727 0.259874
		CHANNELS 6 Xposition Yposition Zposition Xrotation Yrotation Zrotation
		JOINT MiddleSpine
		{
			OFFSET 0.002509 -0.010867 0.237154
			CHANNELS 3 Xrotation Yrotation Zrotation
			JOINT Chest
			{
				OFFSET -0.013224 0.057279 0.293449
				CHANNELS 3 Xrotation Yrotation Zrotation
				JOINT Neck
				{
					OFFSET -0.002784 0.012059 0.661279
					CHANNELS 6 Xposition Yposition Zposition Xrotation Yrotation Zrotation
					JOINT Head
					{
						OFFSET 0.022846 -0.098970 0.373433
						CHANNELS 3 Xrotation Yrotation Zrotation
						End Site
						{
							OFFSET 0.000360 -0.001560 0.053629
						}
					}
				}
				JOINT LClavicle
				{
					OFFSET 0.102810 -0.178216 0.638168
					CHANNELS 6 Xposition Yposition Zposition Xrotation Yrotation Zrotation
					JOINT LShoulder
					{
						OFFSET 0.308712 0.223282 0.091536
						CHANNELS 3 Xrotation Yrotation Zrotation
						JOINT LForearm
						{
							OFFSET 0.805651 0.193367 -0.002936
							CHANNELS 3 Xrotation Yrotation Zrotation
							JOINT LHand
							{
								OFFSET 0.672498 0.159508 0.002006
								CHANNELS 3 Xrotation Yrotation Zrotation
								JOINT LFinger1
								{
									OFFSET 0.277738 -0.012235 0.023428
									CHANNELS 6 Xposition Yposition Zposition Xrotation Yrotation Zrotation
									JOINT LFinger11
									{
										OFFSET 0.101598 0.005338 -0.024433
										CHANNELS 3 Xrotation Yrotation Zrotation
										JOINT LFinger12
										{
											OFFSET 0.069360 0.003639 -0.016682
											CHANNELS 3 Xrotation Yrotation Zrotation
											End Site
											{
												OFFSET 0.051353 0.003398 -0.015164
											}
										}
									}
								}
								JOINT LFinger2
								{
									OFFSET 0.266355 0.054846 0.027054
									CHANNELS 6 Xposition Yposition Zposition Xrotation Yrotation Zrotation
									JOINT LFinger21
									{
										OFFSET 0.120546 0.028580 0.000345
										CHANNELS 3 Xrotation Yrotation Zrotation
										JOINT LFinger22
										{
											OFFSET 0.066816 0.015854 0.000210
											CHANNELS 3 Xrotation Yrotation Zrotation
											End Site
											{
												OFFSET 0.052164 0.011968 -0.003780
											}
										}
									}
								}
								JOINT LFinger3
								{
									OFFSET 0.237335 0.117352 0.018055
									CHANNELS 6 Xposition Yposition Zposition Xrotation Yrotation Zrotation
									JOINT LFinger31
									{
										OFFSET 0.107949 0.032147 -0.005692
										CHANNELS 3 Xrotation Yrotation Zrotation
										JOINT LFinger32
										{
											OFFSET 0.061512 0.018330 -0.003223
											CHANNELS 3 Xrotation Yrotation Zrotation
											End Site
											{
												OFFSET 0.051264 0.014415 -0.006540
											}
										}
									}
								}
								JOINT LFinger4
								{
									OFFSET 0.209281 0.156354 -0.018169
									CHANNELS 6 Xposition Yposition Zposition Xrotation Yrotation Zrotation
									JOINT LFinger41
									{
										OFFSET 0.063080 0.034153 -0.014420
										CHANNELS 3 Xrotation Yrotation Zrotation
										JOINT LFinger42
										{
											OFFSET 0.046255 0.025053 -0.010559
											CHANNELS 3 Xrotation Yrotation Zrotation
											End Site
											{
												OFFSET 0.046612 0.022657 -0.013878
											}
										}
									}
								}
								JOINT LFinger0
								{
									OFFSET 0.063442 -0.028467 -0.041941
									CHANNELS 6 Xposition Yposition Zposition Xrotation Yrotation Zrotation
									JOINT LFinger01
									{
										OFFSET 0.118022 -0.052582 -0.033880
										CHANNELS 3 Xrotation Yrotation Zrotation
										JOINT LFinger02
										{
											OFFSET 0.077202 -0.032408 -0.024309
											CHANNELS 3 Xrotation Yrotation Zrotation
											End Site
											{
												OFFSET 0.048053 -0.018832 -0.014659
											}
										}
									}
								}
							}
						}
					}
				}
				JOINT RClavicle
				{
					OFFSET -0.014280 -0.205248 0.638167
					CHANNELS 6 Xposition Yposition Zposition Xrotation Yrotation Zrotation
					JOINT RShoulder
					{
						OFFSET -0.375415 0.065365 0.091551
						CHANNELS 3 Xrotation Yrotation Zrotation
						JOINT RForearm
						{
							OFFSET -0.808881 -0.179376 -0.002939
							CHANNELS 3 Xrotation Yrotation Zrotation
							JOINT RHand
							{
								OFFSET -0.674361 -0.151438 0.002003
								CHANNELS 3 Xrotation Yrotation Zrotation
								JOINT RFinger1
								{
									OFFSET -0.244269 -0.132749 0.023430
									CHANNELS 6 Xposition Yposition Zposition Xrotation Yrotation Zrotation
									JOINT RFinger11
									{
										OFFSET -0.093656 -0.039740 -0.024433
										CHANNELS 3 Xrotation Yrotation Zrotation
										JOINT RFinger12
										{
											OFFSET -0.063936 -0.027135 -0.016688
											CHANNELS 3 Xrotation Yrotation Zrotation
											End Site
											{
												OFFSET -0.047645 -0.019457 -0.015164
											}
										}
									}
								}
								JOINT RFinger2
								{
									OFFSET -0.263441 -0.067469 0.027053
									CHANNELS 6 Xposition Yposition Zposition Xrotation Yrotation Zrotation
									JOINT RFinger21
									{
										OFFSET -0.120875 -0.027156 0.000347
										CHANNELS 3 Xrotation Yrotation Zrotation
										JOINT RFinger22
										{
											OFFSET -0.067005 -0.015038 0.000210
											CHANNELS 3 Xrotation Yrotation Zrotation
											End Site
											{
												OFFSET -0.052131 -0.012110 -0.003781
											}
										}
									}
								}
								JOINT RFinger3
								{
									OFFSET -0.264759 0.001435 0.018057
									CHANNELS 6 Xposition Yposition Zposition Xrotation Yrotation Zrotation
									JOINT RFinger31
									{
										OFFSET -0.111116 -0.018429 -0.005693
										CHANNELS 3 Xrotation Yrotation Zrotation
										JOINT RFinger32
										{
											OFFSET -0.063324 -0.010490 -0.003223
											CHANNELS 3 Xrotation Yrotation Zrotation
											End Site
											{
												OFFSET -0.052396 -0.009516 -0.006540
											}
										}
									}
								}
								JOINT RFinger4
								{
									OFFSET -0.256642 0.048788 -0.018170
									CHANNELS 6 Xposition Yposition Zposition Xrotation Yrotation Zrotation
									JOINT RFinger41
									{
										OFFSET -0.071668 0.003044 -0.014420
										CHANNELS 3 Xrotation Yrotation Zrotation
										JOINT RFinger42
										{
											OFFSET -0.052556 0.002241 -0.010556
											CHANNELS 3 Xrotation Yrotation Zrotation
											End Site
											{
												OFFSET -0.051827 -0.000070 -0.013879
											}
										}
									}
								}
								JOINT RFinger0
								{
									OFFSET -0.044542 -0.053394 -0.041938
									CHANNELS 6 Xposition Yposition Zposition Xrotation Yrotation Zrotation
									JOINT RFinger01
									{
										OFFSET -0.083026 -0.099001 -0.033886
										CHANNELS 3 Xrotation Yrotation Zrotation
										JOINT RFinger02
										{
											OFFSET -0.055183 -0.062971 -0.024307
											CHANNELS 3 Xrotation Yrotation Zrotation
											End Site
											{
												OFFSET -0.034934 -0.037991 -0.014660
											}
										}
									}
								}
							}
						}
					}
				}
			}
		}
	}
	JOINT RThigh
	{
		OFFSET -0.305056 -0.044559 0.117468
		CHANNELS 6 Xposition Yposition Zposition Xrotation Yrotation Zrotation
		JOINT RShin
		{
			OFFSET -0.021676 -0.005004 -1.209168
			CHANNELS 3 Xrotation Yrotation Zrotation
			JOINT RFoot
			{
				OFFSET -0.000000 0.000000 -1.187332
				CHANNELS 3 Xrotation Yrotation Zrotation
				JOINT RToe
				{
					OFFSET 0.061386 -0.265894 -0.130497
					CHANNELS 3 Xrotation Yrotation Zrotation
					End Site
					{
						OFFSET 0.012069 -0.052278 0.000000
					}
				}
			}
		}
	}
	JOINT LThigh
	{
		OFFSET 0.293713 0.093678 0.117477
		CHANNELS 6 Xposition Yposition Zposition Xrotation Yrotation Zrotation
		JOINT LShin
		{
			OFFSET 0.021676 0.005005 -1.209177
			CHANNELS 3 Xrotation Yrotation Zrotation
			JOINT LFoot
			{
				OFFSET -0.000000 0.000000 -1.187331
				CHANNELS 3 Xrotation Yrotation Zrotation
				JOINT LToe
				{
					OFFSET 0.061387 -0.265897 -0.130500
					CHANNELS 3 Xrotation Yrotation Zrotation
					End Site
					{
						OFFSET 0.012069 -0.052278 0.000000
					}
				}
			}
		}
	}
}
MOTION
Frames: 5
Frame Time: 0.041667
0.567283 -3.531335 3.111816 146.036042 -14.324092 -30.197335 -0.034798 0.150727 0.259873 0.000022 -0.000000 -0.000003 2.888884 6.937875 1.780688 3.947951 22.666726 4.637021 -0.002784 0.012059 0.661279 -43.242051 -14.681104 -7.861041 -6.061228 -3.211864 -0.222676 0.102810 -0.178216 0.638168 7.880566 -30.705501 2.166842 -29.656804 -53.947471 -46.963701 0.558062 0.164321 3.407532 68.992533 -76.918278 116.270365 0.277738 -0.012235 0.023427 -0.000007 0.000008 -0.000006 0.000002 0.000002 0.000000 0.000002 -0.000014 0.000004 0.266355 0.054846 0.027054 -0.000005 0.000004 -0.000007 -0.862643 3.731088 0.028098 -0.000000 0.000011 0.000006 0.237335 0.117352 0.018055 -0.985203 1.575993 -0.631660 0.000000 -0.000001 0.000002 -0.000002 0.000005 0.000005 0.209281 0.156354 -0.018169 -0.000006 0.000007 0.000002 -0.000001 0.000009 -0.000003 0.000001 0.000009 -0.000017 0.063442 -0.028467 -0.041941 0.000002 -0.000005 0.000005 0.000003 0.000013 -0.000007 0.000014 0.000003 -0.000006 -0.014280 -0.205248 0.638167 -6.809496 27.184054 1.648280 -30.585013 29.890598 29.487238 0.000004 -0.000024 -2.586854 -116.022074 48.912177 48.640096 -0.244269 -0.132749 0.023430 -0.000003 0.000000 -0.000003 0.000008 -0.000012 -0.000012 0.000008 -0.000011 0.000001 -0.263442 -0.067470 0.027053 -0.000006 0.000007 0.000002 0.000004 0.000001 -0.000002 -0.000001 -0.000000 -0.000002 -0.264759 0.001435 0.018057 -0.000003 0.000003 -0.000004 0.000003 0.000007 -0.000011 -0.000001 0.000009 -0.000002 -0.256642 0.048788 -0.018170 -0.000003 -0.000004 -0.000003 -0.000004 -0.000002 0.000006 -0.000011 0.000003 0.000008 -0.044542 -0.053394 -0.041939 -0.000009 0.000013 -0.000001 -0.000007 -0.000015 0.000013 0.000001 -0.000007 0.000011 -0.305056 -0.044559 0.117468 -2.993316 21.752954 -3.660203 4.180737 0.964245 -0.035197 -0.201736 1.720256 -3.610079 -0.000012 0.000035 -0.000001 0.293713 0.093678 0.117476 -135.538192 -14.992439 -3.989141 124.395339 10.785851 -20.300658 1.629113 -0.113724 1.037071 0.000005 0.000002 0.000002 
0.567283 -3.531335 3.111816 146.036042 -14.324092 -30.197335 -0.034798 0.150727 0.259873 0.000022 -0.000000 -0.000003 2.888884 6.937875 1.780688 3.947951 22.666726 4.637021 -0.002784 0.012059 0.661279 -43.242051 -14.681104 -7.861041 -6.061228 -3.211864 -0.222676 0.102810 -0.178216 0.638168 7.880566 -30.705501 2.166842 -29.656804 -53.947471 -46.963701 0.558062 0.164321 3.407532 68.992533 -76.918278 116.270365 0.277738 -0.012235 0.023427 -0.000007 0.000008 -0.000006 0.000002 0.000002 0.000000 0.000002 -0.000014 0.000004 0.266355 0.054846 0.027054 -0.000005 0.000004 -0.000007 -0.862643 3.731088 0.028098 -0.000000 0.000011 0.000006 0.237335 0.117352 0.018055 -0.985203 1.575993 -0.631660 0.000000 -0.000001 0.000002 -0.000002 0.000005 0.000005 0.209281 0.156354 -0.018169 -0.000006 0.000007 0.000002 -0.000001 0.000009 -0.000003 0.000001 0.000009 -0.000017 0.063442 -0.028467 -0.041941 0.000002 -0.000005 0.000005 0.000003 0.000013 -0.000007 0.000014 0.000003 -0.000006 -0.014280 -0.205248 0.638167 -6.809496 27.184054 1.648280 -30.585013 29.890598 29.487238 0.000004 -0.000024 -2.586854 -116.022074 48.912177 48.640096 -0.244269 -0.132749 0.023430 -0.000003 0.000000 -0.000003 0.000008 -0.000012 -0.000012 0.000008 -0.000011 0.000001 -0.263442 -0.067470 0.027053 -0.000006 0.000007 0.000002 0.000004 0.000001 -0.000002 -0.000001 -0.000000 -0.000002 -0.264759 0.001435 0.018057 -0.000003 0.000003 -0.000004 0.000003 0.000007 -0.000011 -0.000001 0.000009 -0.000002 -0.256642 0.048788 -0.018170 -0.000003 -0.000004 -0.000003 -0.000004 -0.000002 0.000006 -0.000011 0.000003 0.000008 -0.044542 -0.053394 -0.041939 -0.000009 0.000013 -0.000001 -0.000007 -0.000015 0.000013 0.000001 -0.000007 0.000011 -0.305056 -0.044559 0.117468 -2.993316 21.752954 -3.660203 4.180737 0.964245 -0.035197 -0.201736 1.720256 -3.610079 -0.000012 0.000035 -0.000001 0.293713 0.093678 0.117476 -135.538192 -14.992439 -3.989141 124.395339 10.785851 -20.300658 1.629113 -0.113724 1.037071 0.000005 0.000002 0.000002 
0.566198 -3.529240 3.112413 146.392961 -14.182730 -29.923960 -0.034798 0.150727 0.259873 0.000022 -0.000004 -0.000007 2.869615 6.872124 1.752516 3.647033 22.382465 4.627784 -0.002784 0.012059 0.661279 -43.256141 -14.607850 -7.807006 -5.994175 -3.236038 -0.223158 0.102810 -0.178216 0.638168 7.880432 -30.705102 2.166774 -29.655787 -53.979098 -47.195467 0.557130 0.167463 3.730275 68.992540 -76.918278 116.270365 0.277738 -0.012235 0.023427 -0.000006 0.000007 -0.000005 -0.000001 0.000000 -0.000001 0.000004 -0.000013 0.000004 0.266355 0.054846 0.027054 -0.000005 0.000004 -0.000006 -0.929209 4.018071 0.032599 0.000001 0.000011 0.000006 0.237335 0.117352 0.018055 -0.985203 1.575993 -0.631660 0.000001 -0.000001 0.000004 -0.000004 0.000004 0.000002 0.209281 0.156354 -0.018169 -0.000007 0.000009 0.000006 -0.000001 0.000009 -0.000003 0.000001 0.000008 -0.000017 0.063442 -0.028467 -0.041941 0.000002 -0.000003 0.000006 0.000005 0.000012 -0.000006 0.000017 0.000004 -0.000003 -0.014280 -0.205248 0.638167 -6.805595 27.170790 1.646504 -30.436511 29.906441 29.442217 0.000005 -0.000022 -2.776480 -115.775750 48.997288 48.373124 -0.244270 -0.132749 0.023430 -0.000002 0.000000 0.000002 0.000009 -0.000013 -0.000012 0.000006 -0.000010 0.000005 -0.263442 -0.067470 0.027053 -0.000005 0.000006 0.000002 0.000002 0.000002 -0.000003 -0.000003 -0.000000 0.000002 -0.264759 0.001435 0.018057 -0.000003 -0.000001 -0.000002 0.000000 0.000004 -0.000012 0.000000 0.000010 0.000000 -0.256642 0.048787 -0.018170 -0.000003 -0.000005 -0.000001 -0.000002 -0.000001 0.000006 -0.000010 0.000005 0.000008 -0.044543 -0.053394 -0.041939 -0.000009 0.000014 -0.000000 -0.000006 -0.000008 0.000009 0.000003 -0.000011 0.000011 -0.305056 -0.044558 0.117468 -3.632846 21.362878 -3.532940 4.267404 0.984193 -0.036673 -0.314964 0.970275 -2.112496 -0.000009 0.000034 -0.000001 0.293713 0.093678 0.117476 -136.715307 -14.942705 -4.831343 123.441258 10.904406 -20.121143 0.650462 -0.176847 0.673498 0.000002 0.000001 0.000003 
0.564885 -3.526101 3.112648 146.717996 -14.037961 -29.669973 -0.034798 0.150727 0.259872 0.000022 -0.000004 -0.000006 2.881492 6.807567 1.729288 3.401872 22.120177 4.628926 -0.002784 0.012059 0.661279 -43.256148 -14.533044 -7.750222 -5.938745 -3.270604 -0.224705 0.102810 -0.178215 0.638168 7.880000 -30.703729 2.166549 -29.638086 -54.131452 -47.138042 0.557437 0.166428 3.623721 68.992533 -76.918278 116.270365 0.277738 -0.012235 0.023427 -0.000006 0.000008 -0.000005 -0.000001 0.000001 -0.000000 0.000003 -0.000014 0.000005 0.266355 0.054846 0.027054 -0.000004 0.000004 -0.000006 -0.991661 4.287112 0.037123 0.000001 0.000010 0.000006 0.237335 0.117352 0.018055 -0.985203 1.575993 -0.631662 0.000001 -0.000002 -0.000001 -0.000002 0.000005 0.000005 0.209281 0.156354 -0.018169 -0.000006 0.000008 0.000004 -0.000002 0.000009 -0.000001 -0.000000 0.000010 -0.000018 0.063442 -0.028467 -0.041941 -0.000000 -0.000003 0.000003 0.000003 0.000011 -0.000007 0.000015 0.000003 -0.000008 -0.014280 -0.205248 0.638168 -6.807953 27.178796 1.647577 -30.315655 30.003037 29.151326 0.000004 -0.000024 -2.613058 -115.528401 49.081661 48.105173 -0.244269 -0.132749 0.023430 -0.000001 0.000000 -0.000003 0.000011 -0.000015 -0.000012 0.000009 -0.000012 -0.000000 -0.263442 -0.067470 0.027053 -0.000004 0.000005 0.000002 0.000001 0.000001 -0.000001 0.000000 -0.000001 0.000002 -0.264759 0.001435 0.018057 -0.000001 0.000002 -0.000003 -0.000001 0.000005 -0.000010 -0.000001 0.000006 -0.000001 -0.256641 0.048788 -0.018170 0.000000 -0.000005 -0.000002 -0.000002 -0.000001 0.000007 -0.000009 0.000003 0.000008 -0.044542 -0.053394 -0.041938 -0.000006 0.000012 -0.000001 -0.000008 -0.000012 0.000015 0.000001 -0.000011 0.000010 -0.305056 -0.044559 0.117468 -5.099914 20.918510 -3.229441 5.183220 1.194829 -0.054080 -0.171402 0.150761 -0.379666 -0.000010 0.000033 -0.000002 0.293713 0.093678 0.117476 -138.244026 -15.070191 -6.463149 118.511159 11.467997 -19.164128 -0.902038 -0.433048 0.437970 0.000002 -0.000000 -0.000000 
0.563335 -3.520784 3.112530 146.999318 -13.877671 -29.429441 -0.034798 0.150727 0.259872 0.000020 -0.000003 -0.000007 2.924745 6.745242 1.710842 3.160606 21.858234 4.631450 -0.002784 0.012059 0.661279 -43.235910 -14.453087 -7.687339 -5.897568 -3.315178 -0.227344 0.102810 -0.178216 0.638168 7.877384 -30.695430 2.165216 -29.673771 -54.326905 -46.997558 0.558152 0.164007 3.375114 68.992533 -76.918278 116.270365 0.277738 -0.012235 0.023428 -0.000008 0.000006 -0.000006 -0.000001 0.000001 0.000001 0.000006 -0.000014 0.000004 0.266354 0.054846 0.027054 -0.000005 0.000004 -0.000005 -1.037483 4.484406 0.040629 -0.000000 0.000009 0.000006 0.237335 0.117352 0.018055 -0.985203 1.575993 -0.631662 0.000001 -0.000001 0.000002 -0.000003 0.000005 0.000002 0.209281 0.156354 -0.018169 -0.000007 0.000007 0.000001 -0.000002 0.000009 -0.000005 -0.000000 0.000008 -0.000015 0.063441 -0.028467 -0.041941 -0.000003 -0.000003 0.000001 0.000002 0.000013 -0.000008 0.000019 0.000003 -0.000004 -0.014280 -0.205248 0.638167 -6.812624 27.194680 1.649703 -30.184211 30.112108 28.680832 0.000005 -0.000023 -2.209882 -115.342210 49.144413 47.903528 -0.244269 -0.132749 0.023430 -0.000001 -0.000000 -0.000000 0.000009 -0.000013 -0.000014 0.000010 -0.000014 0.000001 -0.263441 -0.067470 0.027053 -0.000003 0.000005 -0.000001 0.000003 0.000000 -0.000003 -0.000001 -0.000001 0.000001 -0.264759 0.001435 0.018057 -0.000001 -0.000000 -0.000004 -0.000000 0.000004 -0.000009 -0.000001 0.000009 -0.000002 -0.256642 0.048788 -0.018170 -0.000001 -0.000004 -0.000002 -0.000001 -0.000002 0.000006 -0.000010 0.000002 0.000009 -0.044542 -0.053394 -0.041939 -0.000006 0.000011 -0.000004 -0.000006 -0.000009 0.000014 -0.000003 -0.000010 0.000015 -0.305056 -0.044559 0.117468 -7.054620 20.391671 -2.819193 6.413867 1.477333 -0.082782 -0.070192 -0.691266 1.370589 -0.000009 0.000032 0.000003 0.293713 0.093678 0.117476 -139.991079 -15.177976 -8.606652 110.057208 12.236103 -17.424750 -2.097032 -0.726446 0.461516 0.000007 0.000002 -0.000001 
